<svg width="297" height="99" viewBox="0 0 297 99" fill="none" xmlns="http://www.w3.org/2000/svg">
<rect x="1.2375" y="1.2375" width="294.525" height="96.525" rx="13.6125" fill="black"/>
<rect x="1.2375" y="1.2375" width="294.525" height="96.525" rx="13.6125" stroke="#A6A6A6" stroke-width="2.475"/>
<path d="M61.1437 51.3884C61.1737 49.1116 61.7932 46.8793 62.9444 44.899C64.0956 42.9188 65.7411 41.255 67.7279 40.0625C66.4658 38.3027 64.8007 36.8544 62.8649 35.8327C60.9292 34.811 58.7761 34.244 56.5766 34.1769C51.8848 33.696 47.3364 36.9178 44.9454 36.9178C42.5083 36.9178 38.8272 34.2246 34.8633 34.3042C32.2993 34.3851 29.8005 35.113 27.6104 36.417C25.4202 37.7211 23.6134 39.5567 22.366 41.7452C16.9625 50.8789 20.993 64.3025 26.1692 71.6855C28.7589 75.3008 31.7856 79.3391 35.746 79.1959C39.6214 79.039 41.0688 76.7833 45.7468 76.7833C50.3814 76.7833 51.7393 79.1959 55.78 79.1049C59.9386 79.039 62.5586 75.4736 65.0576 71.8241C66.9183 69.2481 68.3502 66.401 69.3001 63.3884C66.8841 62.3908 64.8223 60.7209 63.3719 58.5869C61.9214 56.453 61.1465 53.9494 61.1437 51.3884Z" fill="white"/>
<path d="M53.5115 29.3215C55.7789 26.664 56.896 23.2484 56.6255 19.7998C53.1614 20.155 49.9616 21.7714 47.6635 24.3268C46.54 25.5753 45.6794 27.0276 45.1311 28.6009C44.5828 30.1742 44.3575 31.8376 44.468 33.496C46.2007 33.5134 47.9148 33.1467 49.4813 32.4236C51.0478 31.7005 52.4258 30.6399 53.5115 29.3215Z" fill="white"/>
<path d="M96.6861 19.804C97.7542 19.804 98.7344 19.9798 99.6267 20.3313C100.519 20.6828 101.29 21.1763 101.939 21.8117C102.601 22.4472 103.115 23.1975 103.48 24.0628C103.845 24.9281 104.027 25.8745 104.027 26.902C104.027 27.9295 103.845 28.8759 103.48 29.7412C103.115 30.593 102.601 31.3433 101.939 31.9923C101.276 32.6277 100.492 33.1212 99.5862 33.4727C98.6803 33.8242 97.6934 34 96.6253 34H90.8658V19.804H96.6861ZM96.747 31.9517C97.4365 31.9517 98.0719 31.83 98.6533 31.5867C99.2482 31.3433 99.7619 30.9986 100.195 30.5524C100.641 30.0927 100.985 29.5587 101.229 28.9503C101.486 28.3284 101.614 27.6524 101.614 26.9223C101.614 26.1787 101.486 25.5027 101.229 24.8943C100.972 24.2724 100.62 23.7316 100.174 23.2719C99.7281 22.8122 99.2008 22.4607 98.5924 22.2173C97.9976 21.974 97.3486 21.8523 96.6456 21.8523H93.2588V31.9517H96.747ZM111.073 23.1502C112.181 23.1502 113.155 23.38 113.993 23.8397C114.845 24.2994 115.507 24.9416 115.98 25.7663C116.454 26.5775 116.69 27.5239 116.69 28.6055C116.69 29.6871 116.454 30.6403 115.98 31.465C115.507 32.2897 114.845 32.9319 113.993 33.3916C113.155 33.8513 112.181 34.0811 111.073 34.0811C109.964 34.0811 108.984 33.8513 108.132 33.3916C107.28 32.9319 106.618 32.2897 106.145 31.465C105.671 30.6403 105.435 29.6871 105.435 28.6055C105.435 27.5239 105.671 26.5775 106.145 25.7663C106.618 24.9416 107.28 24.2994 108.132 23.8397C108.984 23.38 109.964 23.1502 111.073 23.1502ZM111.073 25.0362C110.424 25.0362 109.849 25.1917 109.349 25.5027C108.849 25.8001 108.456 26.2192 108.173 26.76C107.902 27.3008 107.767 27.9228 107.767 28.6258C107.767 29.3424 107.902 29.971 108.173 30.5118C108.456 31.0526 108.849 31.4785 109.349 31.7895C109.849 32.0869 110.424 32.2356 111.073 32.2356C111.722 32.2356 112.289 32.0869 112.776 31.7895C113.276 31.4785 113.662 31.0526 113.932 30.5118C114.216 29.971 114.358 29.3424 114.358 28.6258C114.358 27.9228 114.216 27.3008 113.932 26.76C113.662 26.2192 113.276 25.8001 112.776 25.5027C112.289 25.1917 111.722 25.0362 111.073 25.0362ZM117.024 23.2313H119.417L122.216 31.8503L124.933 23.2313H127.347L130.084 31.8503L132.843 23.2313H135.215L131.281 34H128.868L126.13 25.8474L123.392 34H120.999L117.024 23.2313ZM144.938 27.916C144.938 27.0778 144.708 26.422 144.249 25.9488C143.789 25.4621 143.154 25.2188 142.342 25.2188C141.383 25.2323 140.625 25.5703 140.071 26.2328C139.53 26.8952 139.26 27.72 139.26 28.7069H138.611C138.611 27.3684 138.8 26.2936 139.179 25.4824C139.557 24.6712 140.091 24.0831 140.781 23.718C141.484 23.3395 142.309 23.1502 143.255 23.1502C144.093 23.1502 144.81 23.3192 145.405 23.6572C146.013 23.9952 146.473 24.4752 146.784 25.0971C147.108 25.7055 147.27 26.4423 147.27 27.3076V34H144.938V27.916ZM136.948 23.2313H139.28V34H136.948V23.2313ZM150.497 18.9522H152.829V34H150.497V18.9522ZM161 23.1502C162.109 23.1502 163.082 23.38 163.921 23.8397C164.772 24.2994 165.435 24.9416 165.908 25.7663C166.381 26.5775 166.618 27.5239 166.618 28.6055C166.618 29.6871 166.381 30.6403 165.908 31.465C165.435 32.2897 164.772 32.9319 163.921 33.3916C163.082 33.8513 162.109 34.0811 161 34.0811C159.892 34.0811 158.911 33.8513 158.06 33.3916C157.208 32.9319 156.545 32.2897 156.072 31.465C155.599 30.6403 155.362 29.6871 155.362 28.6055C155.362 27.5239 155.599 26.5775 156.072 25.7663C156.545 24.9416 157.208 24.2994 158.06 23.8397C158.911 23.38 159.892 23.1502 161 23.1502ZM161 25.0362C160.351 25.0362 159.777 25.1917 159.276 25.5027C158.776 25.8001 158.384 26.2192 158.1 26.76C157.83 27.3008 157.695 27.9228 157.695 28.6258C157.695 29.3424 157.83 29.971 158.1 30.5118C158.384 31.0526 158.776 31.4785 159.276 31.7895C159.777 32.0869 160.351 32.2356 161 32.2356C161.649 32.2356 162.217 32.0869 162.704 31.7895C163.204 31.4785 163.589 31.0526 163.86 30.5118C164.144 29.971 164.286 29.3424 164.286 28.6258C164.286 27.9228 164.144 27.3008 163.86 26.76C163.589 26.2192 163.204 25.8001 162.704 25.5027C162.217 25.1917 161.649 25.0362 161 25.0362ZM172.58 29.1936C171.823 29.1936 171.262 29.3086 170.897 29.5384C170.532 29.7682 170.349 30.1468 170.349 30.6741C170.349 31.1743 170.532 31.5732 170.897 31.8706C171.275 32.168 171.789 32.3168 172.438 32.3168C173.019 32.3168 173.54 32.2154 174 32.0126C174.459 31.8098 174.824 31.5394 175.095 31.2014C175.365 30.8498 175.507 30.4578 175.521 30.0251L175.967 31.9923C175.629 32.6953 175.115 33.2226 174.426 33.5741C173.736 33.9256 172.911 34.1014 171.951 34.1014C171.181 34.1014 170.512 33.9527 169.944 33.6552C169.376 33.3578 168.936 32.959 168.625 32.4587C168.315 31.945 168.159 31.3771 168.159 30.7552C168.159 29.7818 168.511 29.0044 169.214 28.423C169.93 27.8416 170.937 27.5442 172.235 27.5307H175.805V29.1936H172.58ZM175.5 27.1656C175.5 26.4626 175.284 25.915 174.851 25.523C174.419 25.1309 173.777 24.9348 172.925 24.9348C172.411 24.9348 171.884 25.0295 171.343 25.2188C170.816 25.408 170.282 25.6852 169.741 26.0502L168.788 24.5495C169.288 24.2386 169.761 23.9817 170.207 23.7789C170.653 23.5761 171.127 23.4206 171.627 23.3124C172.141 23.2043 172.742 23.1502 173.432 23.1502C174.824 23.1502 175.892 23.4882 176.636 24.1642C177.393 24.8267 177.779 25.746 177.792 26.9223L177.812 34H175.521L175.5 27.1656ZM185.051 23.1299C186.051 23.1299 186.896 23.353 187.586 23.7992C188.289 24.2318 188.823 24.8605 189.188 25.6852C189.567 26.4964 189.749 27.4698 189.736 28.6055C189.749 29.7412 189.573 30.7214 189.208 31.5461C188.843 32.3708 188.309 33.0063 187.606 33.4524C186.917 33.8851 186.079 34.1014 185.092 34.1014C184.064 34.1014 183.158 33.8716 182.374 33.4119C181.603 32.9387 181.002 32.2897 180.569 31.465C180.136 30.6268 179.92 29.6668 179.92 28.5852C179.92 27.5036 180.136 26.5572 180.569 25.746C181.002 24.9213 181.603 24.2791 182.374 23.8194C183.145 23.3598 184.037 23.1299 185.051 23.1299ZM185.578 25.016C184.929 25.016 184.355 25.1714 183.854 25.4824C183.354 25.7934 182.962 26.226 182.678 26.7803C182.408 27.3211 182.266 27.943 182.252 28.6461C182.266 29.3491 182.408 29.971 182.678 30.5118C182.962 31.0526 183.354 31.4785 183.854 31.7895C184.355 32.1004 184.929 32.2559 185.578 32.2559C186.227 32.2559 186.802 32.1004 187.302 31.7895C187.802 31.4785 188.188 31.0526 188.458 30.5118C188.742 29.971 188.884 29.3491 188.884 28.6461C188.884 27.9295 188.742 27.3008 188.458 26.76C188.188 26.2192 187.802 25.7934 187.302 25.4824C186.802 25.1714 186.227 25.016 185.578 25.016ZM188.884 18.9522H191.216V34H188.884V18.9522ZM204.848 23.1502C205.956 23.1502 206.93 23.38 207.768 23.8397C208.62 24.2994 209.282 24.9416 209.756 25.7663C210.229 26.5775 210.465 27.5239 210.465 28.6055C210.465 29.6871 210.229 30.6403 209.756 31.465C209.282 32.2897 208.62 32.9319 207.768 33.3916C206.93 33.8513 205.956 34.0811 204.848 34.0811C203.739 34.0811 202.759 33.8513 201.907 33.3916C201.055 32.9319 200.393 32.2897 199.92 31.465C199.447 30.6403 199.21 29.6871 199.21 28.6055C199.21 27.5239 199.447 26.5775 199.92 25.7663C200.393 24.9416 201.055 24.2994 201.907 23.8397C202.759 23.38 203.739 23.1502 204.848 23.1502ZM204.848 25.0362C204.199 25.0362 203.624 25.1917 203.124 25.5027C202.624 25.8001 202.232 26.2192 201.948 26.76C201.677 27.3008 201.542 27.9228 201.542 28.6258C201.542 29.3424 201.677 29.971 201.948 30.5118C202.232 31.0526 202.624 31.4785 203.124 31.7895C203.624 32.0869 204.199 32.2356 204.848 32.2356C205.497 32.2356 206.065 32.0869 206.551 31.7895C207.052 31.4785 207.437 31.0526 207.707 30.5118C207.991 29.971 208.133 29.3424 208.133 28.6258C208.133 27.9228 207.991 27.3008 207.707 26.76C207.437 26.2192 207.052 25.8001 206.551 25.5027C206.065 25.1917 205.497 25.0362 204.848 25.0362ZM220.889 27.916C220.889 27.0778 220.659 26.422 220.2 25.9488C219.74 25.4621 219.105 25.2188 218.293 25.2188C217.333 25.2323 216.576 25.5703 216.022 26.2328C215.481 26.8952 215.211 27.72 215.211 28.7069H214.562C214.562 27.3684 214.751 26.2936 215.13 25.4824C215.508 24.6712 216.042 24.0831 216.732 23.718C217.435 23.3395 218.26 23.1502 219.206 23.1502C220.044 23.1502 220.761 23.3192 221.356 23.6572C221.964 23.9952 222.424 24.4752 222.735 25.0971C223.059 25.7055 223.221 26.4423 223.221 27.3076V34H220.889V27.916ZM212.899 23.2313H215.231V34H212.899V23.2313ZM234.55 30.593C234.55 31.1743 234.652 31.5732 234.854 31.7895C235.057 31.9923 235.341 32.0937 235.706 32.0937C235.95 32.0937 236.2 32.0531 236.457 31.972C236.727 31.8909 237.018 31.7692 237.329 31.607L237.917 33.2902C237.498 33.5471 237.065 33.7499 236.619 33.8986C236.173 34.0338 235.72 34.1014 235.26 34.1014C234.719 34.1014 234.219 34 233.759 33.7972C233.3 33.5809 232.928 33.2429 232.644 32.7832C232.373 32.3235 232.238 31.7286 232.238 30.9986V20.676H234.55V30.593ZM230.717 23.6166H237.734V25.2796H230.717V23.6166ZM248.183 27.916C248.183 27.0778 247.953 26.422 247.493 25.9488C247.034 25.4621 246.398 25.2188 245.587 25.2188C244.627 25.2323 243.87 25.5703 243.316 26.2328C242.775 26.8952 242.505 27.72 242.505 28.7069H241.856C241.856 27.3684 242.045 26.2936 242.423 25.4824C242.802 24.6712 243.336 24.0831 244.026 23.718C244.729 23.3395 245.553 23.1502 246.5 23.1502C247.338 23.1502 248.055 23.3192 248.649 23.6572C249.258 23.9952 249.717 24.4752 250.028 25.0971C250.353 25.7055 250.515 26.4423 250.515 27.3076V34H248.183V27.916ZM240.172 18.9522H242.505V34H240.172V18.9522ZM261.1 27.8349C261.073 27.2265 260.931 26.7127 260.674 26.2936C260.431 25.861 260.086 25.5297 259.64 25.2999C259.194 25.0565 258.68 24.9348 258.099 24.9348C257.45 24.9348 256.882 25.0836 256.395 25.381C255.922 25.6784 255.55 26.0976 255.28 26.6384C255.009 27.1656 254.874 27.7876 254.874 28.5041C254.874 29.2748 255.016 29.944 255.3 30.5118C255.598 31.0797 256.003 31.5191 256.517 31.83C257.044 32.141 257.646 32.2965 258.322 32.2965C259.525 32.2965 260.539 31.8706 261.364 31.0188L262.601 32.2559C262.074 32.8373 261.431 33.2902 260.674 33.6147C259.917 33.9256 259.072 34.0811 258.139 34.0811C257.031 34.0811 256.064 33.8513 255.239 33.3916C254.415 32.9319 253.772 32.2965 253.313 31.4853C252.853 30.6606 252.623 29.7074 252.623 28.6258C252.623 27.5442 252.853 26.5978 253.313 25.7866C253.772 24.9619 254.415 24.3197 255.239 23.86C256.064 23.4003 257.01 23.1637 258.078 23.1502C259.349 23.1502 260.37 23.4138 261.141 23.9411C261.911 24.4549 262.459 25.185 262.783 26.1314C263.108 27.0778 263.223 28.1999 263.128 29.4978H254.509V27.8349H261.1Z" fill="white"/>
<path d="M100.64 46.715H105.184L116.674 73H111.943L102.781 51.1834L93.6562 73H89.0376L100.64 46.715ZM94.8202 63.1619H110.554V66.9169H94.8202V63.1619ZM130.241 52.9107C132.144 52.9107 133.809 53.3363 135.235 54.1874C136.662 55.0386 137.776 56.2277 138.577 57.7547C139.378 59.2817 139.779 61.0591 139.779 63.0868C139.779 65.0644 139.378 66.8168 138.577 68.3438C137.801 69.8458 136.7 71.0224 135.273 71.8735C133.871 72.7246 132.219 73.1502 130.316 73.1502C128.489 73.1502 126.924 72.7497 125.623 71.9486C124.346 71.1475 123.37 69.996 122.694 68.494C122.018 66.967 121.68 65.1646 121.68 63.0868C121.68 60.9339 122.018 59.1065 122.694 57.6045C123.37 56.0775 124.346 54.9134 125.623 54.1123C126.924 53.3113 128.464 52.9107 130.241 52.9107ZM129.34 56.3278C128.163 56.3278 127.112 56.6157 126.186 57.1914C125.26 57.7672 124.534 58.5558 124.008 59.5571C123.507 60.5334 123.257 61.6724 123.257 62.9741C123.257 64.2759 123.507 65.4399 124.008 66.4663C124.534 67.4676 125.26 68.2562 126.186 68.8319C127.112 69.3827 128.163 69.6581 129.34 69.6581C130.542 69.6581 131.593 69.3702 132.494 68.7944C133.42 68.2186 134.134 67.4301 134.635 66.4287C135.16 65.4274 135.423 64.2759 135.423 62.9741C135.423 61.6974 135.16 60.5584 134.635 59.5571C134.134 58.5558 133.42 57.7672 132.494 57.1914C131.593 56.6157 130.542 56.3278 129.34 56.3278ZM118.939 53.0609H123.257V80.2847H118.939V53.0609ZM154.6 52.9107C156.503 52.9107 158.168 53.3363 159.594 54.1874C161.021 55.0386 162.135 56.2277 162.936 57.7547C163.737 59.2817 164.138 61.0591 164.138 63.0868C164.138 65.0644 163.737 66.8168 162.936 68.3438C162.16 69.8458 161.059 71.0224 159.632 71.8735C158.23 72.7246 156.578 73.1502 154.675 73.1502C152.848 73.1502 151.283 72.7497 149.982 71.9486C148.705 71.1475 147.729 69.996 147.053 68.494C146.377 66.967 146.039 65.1646 146.039 63.0868C146.039 60.9339 146.377 59.1065 147.053 57.6045C147.729 56.0775 148.705 54.9134 149.982 54.1123C151.283 53.3113 152.823 52.9107 154.6 52.9107ZM153.699 56.3278C152.523 56.3278 151.471 56.6157 150.545 57.1914C149.619 57.7672 148.893 58.5558 148.367 59.5571C147.866 60.5334 147.616 61.6724 147.616 62.9741C147.616 64.2759 147.866 65.4399 148.367 66.4663C148.893 67.4676 149.619 68.2562 150.545 68.8319C151.471 69.3827 152.523 69.6581 153.699 69.6581C154.901 69.6581 155.952 69.3702 156.853 68.7944C157.78 68.2186 158.493 67.4301 158.994 66.4287C159.519 65.4274 159.782 64.2759 159.782 62.9741C159.782 61.6974 159.519 60.5584 158.994 59.5571C158.493 58.5558 157.78 57.7672 156.853 57.1914C155.952 56.6157 154.901 56.3278 153.699 56.3278ZM143.298 53.0609H147.616V80.2847H143.298V53.0609ZM192.686 52.7981C191.735 52.1973 190.796 51.7217 189.87 51.3712C188.943 51.0207 188.067 50.7704 187.241 50.6202C186.415 50.47 185.664 50.3949 184.988 50.3949C183.686 50.3949 182.647 50.6452 181.871 51.1459C181.095 51.6466 180.707 52.3725 180.707 53.3238C180.707 54.1749 180.958 54.8759 181.458 55.4266C181.984 55.9523 182.66 56.3904 183.486 56.7408C184.337 57.0663 185.263 57.3792 186.265 57.6796C187.291 57.98 188.305 58.3179 189.306 58.6934C190.308 59.0439 191.234 59.507 192.085 60.0828C192.936 60.6586 193.612 61.397 194.113 62.2982C194.613 63.1744 194.864 64.2884 194.864 65.6402C194.864 67.1923 194.438 68.5441 193.587 69.6956C192.736 70.8221 191.559 71.6983 190.057 72.3241C188.58 72.9499 186.878 73.2629 184.95 73.2629C183.574 73.2629 182.234 73.0876 180.933 72.7371C179.631 72.3616 178.404 71.861 177.253 71.2351C176.126 70.6093 175.112 69.8833 174.211 69.0572L176.126 65.4149C177.027 66.241 177.979 66.9419 178.98 67.5177C180.006 68.0935 181.033 68.5315 182.059 68.8319C183.111 69.1323 184.099 69.2825 185.026 69.2825C186.578 69.2825 187.779 68.9821 188.63 68.3813C189.507 67.7806 189.945 66.9419 189.945 65.8655C189.945 64.9893 189.682 64.2884 189.156 63.7627C188.655 63.212 187.98 62.7614 187.128 62.4109C186.302 62.0604 185.376 61.7475 184.35 61.4721C183.348 61.1968 182.335 60.8839 181.308 60.5334C180.307 60.1579 179.381 59.6948 178.529 59.144C177.703 58.5933 177.027 57.8799 176.502 57.0037C176.001 56.1275 175.751 55.0135 175.751 53.6617C175.751 52.1848 176.151 50.9081 176.952 49.8316C177.753 48.7302 178.867 47.879 180.294 47.2782C181.746 46.6774 183.423 46.377 185.326 46.377C187.028 46.377 188.68 46.6274 190.283 47.1281C191.885 47.6287 193.299 48.2796 194.526 49.0806L192.686 52.7981ZM203.691 66.6916C203.691 67.768 203.879 68.5065 204.255 68.907C204.63 69.2825 205.156 69.4703 205.832 69.4703C206.282 69.4703 206.745 69.3952 207.221 69.245C207.722 69.0948 208.26 68.8695 208.836 68.5691L209.925 71.6858C209.149 72.1614 208.348 72.5369 207.521 72.8122C206.695 73.0626 205.857 73.1878 205.006 73.1878C204.004 73.1878 203.078 73 202.227 72.6245C201.376 72.224 200.687 71.5981 200.162 70.747C199.661 69.8959 199.411 68.7944 199.411 67.4426V48.3297H203.691V66.6916ZM196.594 53.7744H209.587V56.8535H196.594V53.7744ZM221.092 52.9107C223.144 52.9107 224.947 53.3363 226.499 54.1874C228.076 55.0386 229.303 56.2277 230.179 57.7547C231.055 59.2567 231.493 61.009 231.493 63.0117C231.493 65.0144 231.055 66.7792 230.179 68.3063C229.303 69.8333 228.076 71.0224 226.499 71.8735C224.947 72.7246 223.144 73.1502 221.092 73.1502C219.039 73.1502 217.224 72.7246 215.647 71.8735C214.07 71.0224 212.843 69.8333 211.967 68.3063C211.091 66.7792 210.653 65.0144 210.653 63.0117C210.653 61.009 211.091 59.2567 211.967 57.7547C212.843 56.2277 214.07 55.0386 215.647 54.1874C217.224 53.3363 219.039 52.9107 221.092 52.9107ZM221.092 56.4029C219.89 56.4029 218.826 56.6908 217.9 57.2665C216.974 57.8173 216.248 58.5933 215.722 59.5946C215.221 60.596 214.971 61.7475 214.971 63.0492C214.971 64.376 215.221 65.5401 215.722 66.5414C216.248 67.5427 216.974 68.3313 217.9 68.907C218.826 69.4578 219.89 69.7331 221.092 69.7331C222.293 69.7331 223.345 69.4578 224.246 68.907C225.172 68.3313 225.885 67.5427 226.386 66.5414C226.912 65.5401 227.175 64.376 227.175 63.0492C227.175 61.7475 226.912 60.596 226.386 59.5946C225.885 58.5933 225.172 57.8173 224.246 57.2665C223.345 56.6908 222.293 56.4029 221.092 56.4029ZM246.063 56.8159C244.636 56.7408 243.397 56.9912 242.346 57.5669C241.319 58.1177 240.518 58.8937 239.943 59.8951C239.392 60.8964 239.116 62.0479 239.116 63.3497L237.915 63.1994C237.915 60.9715 238.24 59.094 238.891 57.5669C239.542 56.0399 240.481 54.8884 241.707 54.1123C242.934 53.3113 244.386 52.9107 246.063 52.9107V56.8159ZM234.836 53.0609H239.154V73H234.836V53.0609ZM262.269 61.5848C262.219 60.4583 261.956 59.507 261.48 58.731C261.03 57.9299 260.391 57.3166 259.565 56.891C258.739 56.4404 257.788 56.2151 256.711 56.2151C255.51 56.2151 254.458 56.4905 253.557 57.0412C252.681 57.592 251.993 58.368 251.492 59.3694C250.991 60.3457 250.741 61.4972 250.741 62.8239C250.741 64.2508 251.004 65.49 251.53 66.5414C252.08 67.5928 252.831 68.4064 253.783 68.9821C254.759 69.5579 255.873 69.8458 257.124 69.8458C259.352 69.8458 261.23 69.0572 262.757 67.4802L265.048 69.7707C264.071 70.8471 262.882 71.6857 261.48 72.2865C260.078 72.8623 258.514 73.1502 256.787 73.1502C254.734 73.1502 252.944 72.7246 251.417 71.8735C249.89 71.0224 248.701 69.8458 247.85 68.3438C246.999 66.8168 246.573 65.0519 246.573 63.0492C246.573 61.0466 246.999 59.2942 247.85 57.7922C248.701 56.2652 249.89 55.0761 251.417 54.225C252.944 53.3739 254.696 52.9358 256.674 52.9107C259.027 52.9107 260.917 53.3989 262.344 54.3752C263.771 55.3265 264.785 56.6783 265.385 58.4306C265.986 60.1829 266.199 62.2607 266.024 64.6639H250.065V61.5848H262.269Z" fill="white"/>
</svg>
