<?xml version="1.0" encoding="UTF-8"?>
<svg id="Capa_1" xmlns="http://www.w3.org/2000/svg" version="1.1" viewBox="0 0 200 200">
  <!-- Generator: Adobe Illustrator 29.5.1, SVG Export Plug-In . SVG Version: 2.1.0 Build 141)  -->
  <defs>
    <style>
      .st0 {
        fill: #fff;
      }
    </style>
  </defs>
  <path class="st0" d="M170.37,1.49H29.63C14.15,1.49,1.49,14.15,1.49,29.63v140.73c0,15.48,12.67,28.15,28.15,28.15h140.73c15.48,0,28.15-12.67,28.15-28.15V29.63c0-15.48-12.67-28.15-28.15-28.15h0ZM136.59,52.15c0,1.41-.7,2.11-2.11,2.11h-15.48c-4.22,0-7.04,2.81-7.04,6.33v14.78h21.81c1.41,0,2.11.7,2.11,2.11l-2.11,21.11c0,.7-1.41,1.41-2.11,1.41h-19.7v68.96c0,1.41-.7,2.11-2.11,2.11h-27.44c-1.41,0-2.11-1.41-2.11-2.11v-68.25h-13.37c-1.41,0-2.11-1.41-2.11-2.11v-21.11c0-1.41.7-2.11,2.11-2.11h13.37v-20.41c0-14.07,12.67-25.33,27.44-25.33h25.33c1.41,0,2.11.7,3.52,2.11v20.41h0Z"/>
</svg>