<svg width="297" height="99" viewBox="0 0 297 99" fill="none" xmlns="http://www.w3.org/2000/svg">
<rect x="1.2375" y="1.2375" width="294.525" height="96.525" rx="13.6125" fill="black"/>
<rect x="1.2375" y="1.2375" width="294.525" height="96.525" rx="13.6125" stroke="#A6A6A6" stroke-width="2.475"/>
<path d="M44.0676 48.1678L20.0225 74.2649C20.0247 74.2695 20.0247 74.2764 20.027 74.281C20.7655 77.1147 23.2949 79.2002 26.2985 79.2002C27.5 79.2002 28.627 78.8676 29.5936 78.2856L29.6703 78.2395L56.735 62.2695L44.0676 48.1678Z" fill="#EA4335"/>
<path d="M68.3922 43.7239L68.3697 43.7077L56.6847 36.7816L43.5205 48.7608L56.7321 62.2666L68.3538 55.4098C70.3909 54.2828 71.7753 52.0865 71.7753 49.5553C71.7753 47.038 70.4112 44.8532 68.3922 43.7239Z" fill="#FBBC04"/>
<path d="M20.0211 24.7334C19.8766 25.2785 19.7998 25.8512 19.7998 26.4424V72.5579C19.7998 73.1492 19.8766 73.7219 20.0234 74.2646L44.8929 48.8351L20.0211 24.7334Z" fill="#4285F4"/>
<path d="M44.2446 49.5L56.6883 36.7771L29.6553 20.7494C28.6729 20.1466 27.5257 19.8002 26.2993 19.8002C23.2957 19.8002 20.7617 21.8903 20.0233 24.7263C20.0233 24.7286 20.021 24.7309 20.021 24.7332L44.2446 49.5Z" fill="#34A853"/>
<path d="M104.767 24.2475C104.14 23.01 103.307 22.1025 102.267 21.525C101.228 20.931 100.073 20.634 98.8021 20.634C97.5481 20.634 96.4178 20.9227 95.4113 21.5002C94.4048 22.0777 93.6128 22.8945 93.0353 23.9505C92.4578 25.0065 92.1691 26.2605 92.1691 27.7125C92.1691 29.148 92.4578 30.3937 93.0353 31.4497C93.6128 32.5057 94.4048 33.3225 95.4113 33.9C96.4178 34.4775 97.5481 34.7662 98.8021 34.7662C99.7426 34.7662 100.617 34.6095 101.426 34.296C102.234 33.966 102.935 33.504 103.529 32.91C104.123 32.2995 104.577 31.5735 104.891 30.732V28.7272H98.9506V27.1185H106.895V30.831C106.516 31.9365 105.938 32.9182 105.163 33.7762C104.387 34.6342 103.455 35.3107 102.366 35.8057C101.277 36.3007 100.089 36.5483 98.8021 36.5483C97.5811 36.5483 96.4426 36.3337 95.3866 35.9047C94.3471 35.4757 93.4313 34.8735 92.6393 34.098C91.8638 33.306 91.2533 32.3737 90.8078 31.3012C90.3788 30.2122 90.1643 29.016 90.1643 27.7125C90.1643 26.409 90.3788 25.221 90.8078 24.1485C91.2533 23.0595 91.8638 22.1272 92.6393 21.3517C93.4313 20.5597 94.3471 19.9492 95.3866 19.5202C96.4426 19.0912 97.5811 18.8767 98.8021 18.8767C99.9406 18.8767 101.005 19.0665 101.995 19.446C103.001 19.809 103.892 20.3452 104.668 21.0547C105.443 21.7477 106.054 22.5975 106.499 23.604L104.767 24.2475ZM121.61 20.7825H112.23V26.6977H119.283V28.4302H112.23V34.6425H121.61V36.375H110.25V19.05H121.61V20.7825ZM124.292 19.05H137.286V20.7825H131.792V36.375H129.812V20.7825H124.292V19.05ZM147.375 19.05H149.355V36.375H147.375V19.05ZM152.523 19.05H165.517V20.7825H160.022V36.375H158.042V20.7825H152.523V19.05ZM183.203 36.5483C181.982 36.5483 180.844 36.3337 179.788 35.9047C178.748 35.4757 177.833 34.8735 177.041 34.098C176.265 33.306 175.655 32.3737 175.209 31.3012C174.78 30.2122 174.566 29.016 174.566 27.7125C174.566 26.409 174.78 25.221 175.209 24.1485C175.655 23.0595 176.265 22.1272 177.041 21.3517C177.833 20.5597 178.748 19.9492 179.788 19.5202C180.844 19.0912 181.982 18.8767 183.203 18.8767C184.408 18.8767 185.53 19.0912 186.569 19.5202C187.625 19.9492 188.541 20.5597 189.317 21.3517C190.092 22.1272 190.694 23.0595 191.123 24.1485C191.569 25.221 191.792 26.409 191.792 27.7125C191.792 29.016 191.569 30.2122 191.123 31.3012C190.694 32.3737 190.092 33.306 189.317 34.098C188.541 34.8735 187.625 35.4757 186.569 35.9047C185.53 36.3337 184.408 36.5483 183.203 36.5483ZM183.203 34.8157C184.441 34.8157 185.555 34.527 186.545 33.9495C187.535 33.372 188.318 32.5552 188.896 31.4992C189.473 30.4267 189.762 29.1645 189.762 27.7125C189.762 26.244 189.473 24.9817 188.896 23.9257C188.318 22.8532 187.535 22.0365 186.545 21.4755C185.555 20.898 184.441 20.6092 183.203 20.6092C181.949 20.6092 180.819 20.898 179.813 21.4755C178.823 22.0365 178.039 22.8532 177.461 23.9257C176.884 24.9817 176.595 26.244 176.595 27.7125C176.595 29.1645 176.884 30.4267 177.461 31.4992C178.039 32.5552 178.823 33.372 179.813 33.9495C180.819 34.527 181.949 34.8157 183.203 34.8157ZM208.182 19.05V36.375H206.178L196.921 22.218V36.375H194.941V19.05H196.946L206.202 33.1822V19.05H208.182Z" fill="white"/>
<path d="M231.457 77.2389H235.489V49.9854H231.457V77.2389ZM267.767 59.8024L263.146 71.6186H263.008L258.212 59.8024H253.869L261.061 76.3167L256.963 85.5037H261.165L272.25 59.8024H267.767ZM244.906 74.1431C243.584 74.1431 241.743 73.4782 241.743 71.8279C241.743 69.7263 244.035 68.9196 246.016 68.9196C247.788 68.9196 248.624 69.3055 249.7 69.8309C249.387 72.3555 247.233 74.1431 244.906 74.1431ZM245.392 59.2072C242.473 59.2072 239.449 60.5044 238.2 63.38L241.778 64.8864C242.542 63.38 243.966 62.8873 245.461 62.8873C247.546 62.8873 249.665 64.1495 249.7 66.3951V66.6741C248.97 66.2533 247.408 65.6233 245.496 65.6233C241.639 65.6233 237.712 67.762 237.712 71.7581C237.712 75.4054 240.875 77.7556 244.418 77.7556C247.129 77.7556 248.624 76.5282 249.562 75.0893H249.7V77.1931H253.591V66.7439C253.591 61.9062 250.013 59.2072 245.392 59.2072ZM220.478 63.1205H214.745V53.7788H220.478C223.492 53.7788 225.203 56.2968 225.203 58.4486C225.203 60.5611 223.492 63.1205 220.478 63.1205ZM220.375 49.9854H210.715V77.2389H214.745V66.9139H220.375C224.842 66.9139 229.234 63.6481 229.234 58.4486C229.234 53.249 224.842 49.9854 220.375 49.9854ZM167.702 74.1475C164.917 74.1475 162.586 71.7952 162.586 68.5643C162.586 65.2985 164.917 62.9091 167.702 62.9091C170.452 62.9091 172.608 65.2985 172.608 68.5643C172.608 71.7952 170.452 74.1475 167.702 74.1475ZM172.332 61.3285H172.191C171.286 60.2406 169.547 59.2574 167.354 59.2574C162.759 59.2574 158.548 63.3298 158.548 68.5643C158.548 73.7616 162.759 77.8014 167.354 77.8014C169.547 77.8014 171.286 76.8181 172.191 75.6932H172.332V77.0296C172.332 80.5766 170.452 82.4733 167.423 82.4733C164.952 82.4733 163.42 80.6813 162.793 79.1705L159.279 80.6464C160.287 83.1056 162.968 86.125 167.423 86.125C172.157 86.125 176.16 83.3148 176.16 76.4671V59.8177H172.332V61.3285ZM178.945 77.2389H182.982V49.9832H178.945V77.2389ZM188.932 68.2481C188.828 64.6662 191.682 62.8393 193.735 62.8393C195.338 62.8393 196.694 63.6459 197.146 64.8058L188.932 68.2481ZM201.462 65.1568C200.698 63.0857 198.364 59.2574 193.596 59.2574C188.863 59.2574 184.931 63.0137 184.931 68.5294C184.931 73.7267 188.828 77.8014 194.048 77.8014C198.261 77.8014 200.698 75.2027 201.707 73.6919L198.574 71.5837C197.531 73.1294 196.103 74.1475 194.048 74.1475C191.996 74.1475 190.533 73.1992 189.593 71.3395L201.879 66.2097L201.462 65.1568ZM103.579 62.1024V66.0353H112.906C112.627 68.2481 111.897 69.8636 110.784 70.9864C109.425 72.3576 107.301 73.8685 103.579 73.8685C97.8346 73.8685 93.3453 69.1965 93.3453 63.4018C93.3453 57.6049 97.8346 52.9351 103.579 52.9351C106.677 52.9351 108.939 54.1647 110.609 55.7452L113.359 52.97C111.026 50.7223 107.93 49 103.579 49C95.7131 49 89.1001 55.464 89.1001 63.4018C89.1001 71.3395 95.7131 77.8014 103.579 77.8014C107.824 77.8014 111.026 76.3952 113.532 73.7616C116.109 71.1629 116.909 67.5113 116.909 64.5594C116.909 63.6459 116.84 62.8044 116.699 62.1024H103.579ZM127.514 74.1475C124.729 74.1475 122.327 71.8301 122.327 68.5294C122.327 65.1916 124.729 62.9091 127.514 62.9091C130.297 62.9091 132.699 65.1916 132.699 68.5294C132.699 71.8301 130.297 74.1475 127.514 74.1475ZM127.514 59.2574C122.431 59.2574 118.289 63.1554 118.289 68.5294C118.289 73.8684 122.431 77.8014 127.514 77.8014C132.595 77.8014 136.737 73.8684 136.737 68.5294C136.737 63.1554 132.595 59.2574 127.514 59.2574ZM147.634 74.1475C144.849 74.1475 142.447 71.8301 142.447 68.5294C142.447 65.1916 144.849 62.9091 147.634 62.9091C150.419 62.9091 152.819 65.1916 152.819 68.5294C152.819 71.8301 150.419 74.1475 147.634 74.1475ZM147.634 59.2574C142.553 59.2574 138.411 63.1554 138.411 68.5294C138.411 73.8684 142.553 77.8014 147.634 77.8014C152.715 77.8014 156.857 73.8684 156.857 68.5294C156.857 63.1554 152.715 59.2574 147.634 59.2574Z" fill="white"/>
</svg>
