<?xml version="1.0" encoding="UTF-8"?>
<svg id="Capa_1" xmlns="http://www.w3.org/2000/svg" version="1.1" viewBox="0 0 785.95 800">
  <!-- Generator: Adobe Illustrator 29.5.1, SVG Export Plug-In . SVG Version: 2.1.0 Build 141)  -->
  <defs>
    <style>
      .st0 {
        fill: #eb4335;
      }

      .st1 {
        fill: #4285f4;
      }

      .st2 {
        fill: #34a853;
      }

      .st3 {
        fill: #fbbc05;
      }
    </style>
  </defs>
  <path class="st1" d="M779.1,408.74c0-32.4-2.63-56.04-8.32-80.55h-369.92v146.22h217.14c-4.37,36.34-28.01,91.06-80.55,127.83l-.73,4.9,116.97,90.61,8.1.8c74.42-68.73,117.33-169.86,117.33-289.82"/>
  <path class="st2" d="M400.85,794c106.38,0,195.69-35.03,260.92-95.44l-124.33-96.31c-33.27,23.2-77.93,39.4-136.59,39.4-104.19,0-192.63-68.73-224.15-163.73l-4.62.39-121.62,94.13-1.59,4.42c64.79,128.71,197.88,217.15,351.98,217.15"/>
  <path class="st3" d="M176.7,477.92c-8.32-24.52-13.14-50.78-13.14-77.93s4.82-53.41,12.69-77.93l-.22-5.22-123.14-95.63-4.03,1.92c-26.71,53.41-42.03,113.39-42.03,176.86s15.32,123.45,42.03,176.86l127.83-98.93"/>
  <path class="st0" d="M400.85,158.33c73.98,0,123.9,31.95,152.34,58.67l111.19-108.57C596.1,44.95,507.22,5.99,400.84,5.99,246.74,5.99,113.65,94.43,48.86,223.13l127.39,98.94c31.96-94.99,120.39-163.74,224.58-163.74"/>
</svg>