<?xml version="1.0" encoding="UTF-8"?>
<svg id="Capa_1" xmlns="http://www.w3.org/2000/svg" version="1.1" xmlns:xlink="http://www.w3.org/1999/xlink" viewBox="0 0 200 200">
  <!-- Generator: Adobe Illustrator 29.5.1, SVG Export Plug-In . SVG Version: 2.1.0 Build 141)  -->
  <defs>
    <style>
      .st0, .st1 {
        fill: #fff;
      }

      .st1 {
        fill-rule: evenodd;
      }

      .st2 {
        fill: url(#Degradado_sin_nombre_4);
      }

      .st3 {
        fill: url(#Degradado_sin_nombre_2);
      }

      .st4 {
        fill: url(#Degradado_sin_nombre_3);
      }
    </style>
    <radialGradient id="Degradado_sin_nombre_4" data-name="Degradado sin nombre 4" cx="1.35" cy="201.68" fx="1.35" fy="201.68" r=".28" gradientTransform="translate(105463.44 73963.58) rotate(-55.38) scale(637.99 -637.99)" gradientUnits="userSpaceOnUse">
      <stop offset="0" stop-color="#b13589"/>
      <stop offset=".79" stop-color="#c62f94"/>
      <stop offset="1" stop-color="#8a3ac8"/>
    </radialGradient>
    <radialGradient id="Degradado_sin_nombre_2" data-name="Degradado sin nombre 2" cx="1.76" cy="201.76" fx="1.76" fy="201.76" r=".28" gradientTransform="translate(103050.78 49025.91) rotate(-65.14) scale(564.85 -564.85)" gradientUnits="userSpaceOnUse">
      <stop offset="0" stop-color="#e0e8b7"/>
      <stop offset=".44" stop-color="#fb8a2e"/>
      <stop offset=".71" stop-color="#e2425c"/>
      <stop offset="1" stop-color="#e2425c" stop-opacity="0"/>
    </radialGradient>
    <radialGradient id="Degradado_sin_nombre_3" data-name="Degradado sin nombre 3" cx=".99" cy="201.33" fx=".99" fy="201.33" r=".28" gradientTransform="translate(4962.38 41593.15) rotate(-8.13) scale(972.27 -207.96)" gradientUnits="userSpaceOnUse">
      <stop offset=".16" stop-color="#406adc"/>
      <stop offset=".47" stop-color="#6a45be"/>
      <stop offset="1" stop-color="#6a45be" stop-opacity="0"/>
    </radialGradient>
  </defs>
  <rect class="st2" x="2.24" y="2.24" width="195.51" height="195.51" rx="41.9" ry="41.9"/>
  <rect class="st3" x="2.24" y="2.24" width="195.51" height="195.51" rx="41.9" ry="41.9"/>
  <rect class="st4" x="2.24" y="2.24" width="195.51" height="195.51" rx="41.9" ry="41.9"/>
  <path class="st0" d="M148.88,61.6c0,5.78-4.69,10.47-10.47,10.47s-10.47-4.69-10.47-10.47,4.69-10.47,10.47-10.47,10.47,4.69,10.47,10.47Z"/>
  <path class="st1" d="M100,134.91c19.28,0,34.91-15.63,34.91-34.91s-15.63-34.91-34.91-34.91-34.91,15.63-34.91,34.91,15.63,34.91,34.91,34.91ZM100,120.95c11.57,0,20.95-9.38,20.95-20.95s-9.38-20.95-20.95-20.95-20.95,9.38-20.95,20.95,9.38,20.95,20.95,20.95Z"/>
  <path class="st1" d="M30.17,97.21c0-23.46,0-35.2,4.57-44.16,4.02-7.88,10.43-14.29,18.31-18.31,8.96-4.57,20.69-4.57,44.16-4.57h5.59c23.46,0,35.2,0,44.16,4.57,7.88,4.02,14.29,10.43,18.31,18.31,4.57,8.96,4.57,20.69,4.57,44.16v5.59c0,23.46,0,35.2-4.57,44.16-4.02,7.88-10.43,14.29-18.31,18.31-8.96,4.57-20.69,4.57-44.16,4.57h-5.59c-23.46,0-35.2,0-44.16-4.57-7.88-4.02-14.29-10.43-18.31-18.31-4.57-8.96-4.57-20.69-4.57-44.16v-5.59ZM97.21,44.14h5.59c11.96,0,20.09.01,26.38.52,6.12.5,9.25,1.41,11.44,2.52,5.26,2.68,9.53,6.95,12.21,12.21,1.11,2.18,2.02,5.32,2.52,11.44.51,6.29.52,14.42.52,26.38v5.59c0,11.96-.01,20.09-.52,26.38-.5,6.12-1.41,9.25-2.52,11.44-2.68,5.26-6.95,9.53-12.21,12.21-2.18,1.11-5.32,2.02-11.44,2.52-6.29.51-14.42.52-26.38.52h-5.59c-11.96,0-20.09-.01-26.38-.52-6.12-.5-9.25-1.41-11.44-2.52-5.26-2.68-9.53-6.95-12.21-12.21-1.11-2.18-2.02-5.32-2.52-11.44-.51-6.29-.52-14.42-.52-26.38v-5.59c0-11.96.01-20.09.52-26.38.5-6.12,1.41-9.25,2.52-11.44,2.68-5.26,6.95-9.53,12.21-12.21,2.18-1.11,5.32-2.02,11.44-2.52,6.29-.51,14.42-.52,26.38-.52Z"/>
</svg>