<?xml version="1.0" encoding="UTF-8"?>
<svg id="Capa_1" xmlns="http://www.w3.org/2000/svg" version="1.1" viewBox="0 0 200 200">
  <!-- Generator: Adobe Illustrator 29.5.1, SVG Export Plug-In . SVG Version: 2.1.0 Build 141)  -->
  <defs>
    <style>
      .st0 {
        fill: #fff;
        fill-rule: evenodd;
      }
    </style>
  </defs>
  <path class="st0" d="M100,2.48c-26.49,0-29.81.11-40.21.59-10.38.47-17.47,2.12-23.67,4.53-6.41,2.49-11.85,5.83-17.27,11.25-5.42,5.42-8.76,10.86-11.25,17.27-2.41,6.2-4.06,13.29-4.53,23.67-.47,10.4-.59,13.72-.59,40.21s.11,29.81.59,40.21c.47,10.38,2.12,17.47,4.53,23.67,2.49,6.41,5.83,11.85,11.25,17.27,5.42,5.42,10.86,8.76,17.27,11.25,6.2,2.41,13.29,4.06,23.67,4.53,10.4.47,13.72.59,40.21.59s29.81-.11,40.21-.59c10.38-.47,17.47-2.12,23.67-4.53,6.41-2.49,11.85-5.83,17.27-11.25,5.42-5.42,8.76-10.86,11.25-17.27,2.41-6.2,4.06-13.29,4.53-23.67.47-10.4.59-13.72.59-40.21s-.11-29.81-.59-40.21c-.47-10.38-2.12-17.47-4.53-23.67-2.49-6.41-5.83-11.85-11.25-17.27-5.42-5.42-10.86-8.76-17.27-11.25-6.2-2.41-13.29-4.06-23.67-4.53-10.4-.47-13.72-.59-40.21-.59ZM67.49,100c0,17.95,14.55,32.51,32.51,32.51s32.51-14.55,32.51-32.51-14.55-32.51-32.51-32.51-32.51,14.55-32.51,32.51ZM49.92,100c0-27.66,22.42-50.08,50.08-50.08s50.08,22.42,50.08,50.08-22.42,50.08-50.08,50.08-50.08-22.42-50.08-50.08ZM152.06,59.64c6.46,0,11.7-5.24,11.7-11.7s-5.24-11.7-11.7-11.7-11.7,5.24-11.7,11.7,5.24,11.7,11.7,11.7Z"/>
</svg>