<svg width="296" height="63" viewBox="0 0 296 63" fill="none" xmlns="http://www.w3.org/2000/svg">
<path d="M14.1557 26.1955C14.1557 27.9212 13.853 29.4023 13.2477 30.6386C12.6424 31.875 11.7667 32.8216 10.6205 33.4784C9.47424 34.1352 8.09621 34.4636 6.48636 34.4636C5.28864 34.4636 4.25833 34.3091 3.39545 34C2.54545 33.678 1.86932 33.3303 1.36705 32.9568C0.877652 32.5833 0.575 32.3064 0.459091 32.1261L2.33295 27.9534C2.4875 28.1723 2.71288 28.4299 3.00909 28.7261C3.3053 29.0095 3.68523 29.2606 4.14886 29.4795C4.6125 29.6856 5.16629 29.7886 5.81023 29.7886C6.5572 29.7886 7.18826 29.6277 7.70341 29.3057C8.23144 28.9837 8.63068 28.4943 8.90114 27.8375C9.18447 27.1678 9.32614 26.3371 9.32614 25.3455V8.5H14.1557V26.1955ZM22.3792 21.2307C22.3792 22.8534 22.714 24.3216 23.3837 25.6352C24.0663 26.9489 25 27.992 26.1849 28.7648C27.3697 29.5246 28.7413 29.9045 30.2996 29.9045C31.858 29.9045 33.2296 29.5246 34.4144 28.7648C35.6121 27.992 36.5459 26.9489 37.2156 25.6352C37.8853 24.3216 38.2201 22.8534 38.2201 21.2307C38.2201 19.608 37.8853 18.1462 37.2156 16.8455C36.5459 15.5318 35.6121 14.4886 34.4144 13.7159C33.2296 12.9432 31.858 12.5568 30.2996 12.5568C28.7413 12.5568 27.3697 12.9432 26.1849 13.7159C25 14.4886 24.0663 15.5318 23.3837 16.8455C22.714 18.1462 22.3792 19.608 22.3792 21.2307ZM17.3565 21.2307C17.3565 19.3761 17.6784 17.6504 18.3224 16.0534C18.9792 14.4436 19.8936 13.0398 21.0656 11.842C22.2375 10.6443 23.6091 9.71061 25.1803 9.04091C26.7644 8.37121 28.4709 8.03636 30.2996 8.03636C32.1542 8.03636 33.8671 8.37121 35.4383 9.04091C37.0095 9.71061 38.3746 10.6443 39.5337 11.842C40.7057 13.0398 41.6137 14.4436 42.2576 16.0534C42.9015 17.6504 43.2235 19.3761 43.2235 21.2307C43.2235 23.0981 42.908 24.8367 42.2769 26.4466C41.6459 28.0436 40.7508 29.4473 39.5917 30.658C38.4326 31.8557 37.0674 32.7894 35.4962 33.4591C33.925 34.1288 32.1928 34.4636 30.2996 34.4636C28.3807 34.4636 26.6292 34.1288 25.0451 33.4591C23.4739 32.7894 22.1087 31.8557 20.9496 30.658C19.8034 29.4473 18.9148 28.0436 18.2837 26.4466C17.6656 24.8367 17.3565 23.0981 17.3565 21.2307ZM55.505 8.03636C57.0376 8.03636 58.3706 8.21023 59.5039 8.55795C60.6501 8.8928 61.5581 9.25341 62.2278 9.63977C62.9103 10.0261 63.3225 10.2773 63.4641 10.3932L61.1073 14.3148C60.9013 14.1473 60.5471 13.9155 60.0448 13.6193C59.5554 13.3102 58.963 13.0398 58.2675 12.808C57.5721 12.5633 56.8187 12.4409 56.0073 12.4409C54.8353 12.4409 53.8952 12.6663 53.1869 13.117C52.4914 13.5549 52.1437 14.1924 52.1437 15.0295C52.1437 15.5962 52.3304 16.1049 52.7039 16.5557C53.0774 16.9936 53.6247 17.4057 54.346 17.792C55.08 18.1784 55.9751 18.5841 57.0312 19.0091C57.9585 19.3697 58.8406 19.7883 59.6778 20.2648C60.5278 20.7413 61.2812 21.3015 61.938 21.9455C62.6077 22.5894 63.1357 23.3364 63.5221 24.1864C63.9213 25.0364 64.121 26.0087 64.121 27.1034C64.121 28.3269 63.8698 29.3958 63.3675 30.3102C62.8781 31.2246 62.1956 31.9909 61.3198 32.6091C60.4569 33.2273 59.4653 33.6909 58.3448 34C57.2244 34.3091 56.046 34.4636 54.8096 34.4636C53.1353 34.4636 51.6285 34.2705 50.2891 33.8841C48.9626 33.4848 47.8872 33.0598 47.063 32.6091C46.2388 32.1583 45.7558 31.8686 45.6141 31.7398L48.0869 27.6636C48.2414 27.7795 48.5312 27.9663 48.9562 28.2239C49.3941 28.4814 49.9221 28.7455 50.5403 29.0159C51.1713 29.2864 51.8539 29.5182 52.588 29.7114C53.335 29.9045 54.0948 30.0011 54.8675 30.0011C56.2585 30.0011 57.3081 29.7114 58.0164 29.1318C58.7247 28.5523 59.0789 27.7989 59.0789 26.8716C59.0789 26.1761 58.8535 25.5644 58.4028 25.0364C57.952 24.5083 57.3145 24.0254 56.4903 23.5875C55.6789 23.1367 54.7066 22.6795 53.5732 22.2159C52.4399 21.7394 51.3838 21.1856 50.405 20.5545C49.4391 19.9106 48.66 19.125 48.0675 18.1977C47.4751 17.2576 47.1789 16.1049 47.1789 14.7398C47.1789 13.3875 47.5588 12.2091 48.3187 11.2045C49.0914 10.2 50.1088 9.42083 51.371 8.86704C52.646 8.31326 54.024 8.03636 55.505 8.03636ZM67.9016 8.5H83.7232V12.7693H72.6925V19.1443H83.5686V23.2784H72.6925V29.7307H83.7232V34H67.9016V8.5ZM88.5237 8.5H97.0044C98.6143 8.5 100.07 8.77689 101.37 9.33068C102.684 9.88447 103.727 10.7345 104.5 11.8807C105.273 13.014 105.659 14.4629 105.659 16.2273C105.659 17.9788 105.273 19.4534 104.5 20.6511C103.727 21.8489 102.684 22.7568 101.37 23.375C100.07 23.9803 98.6143 24.283 97.0044 24.283H93.334V34H88.5237V8.5ZM93.334 20.4H95.6715C96.573 20.4 97.3843 20.2712 98.1056 20.0136C98.8396 19.7432 99.4256 19.3117 99.8635 18.7193C100.301 18.1269 100.52 17.3348 100.52 16.3432C100.52 15.3386 100.301 14.553 99.8635 13.9864C99.4256 13.4068 98.8396 12.9947 98.1056 12.75C97.3843 12.4924 96.573 12.3636 95.6715 12.3636H93.334V20.4ZM119.331 8.5H133.51V12.7693H124.16V19.0864H132.834V23.3364H124.16V34H119.331V8.5ZM137.439 8.5H153.261V12.7693H142.23V19.1443H153.107V23.2784H142.23V29.7307H153.261V34H137.439V8.5ZM157.888 8.5H167.701C169.144 8.5 170.438 8.80265 171.584 9.40795C172.731 10.0004 173.639 10.8697 174.308 12.0159C174.991 13.1492 175.332 14.5208 175.332 16.1307C175.332 17.7277 175.036 19.0413 174.443 20.0716C173.851 21.089 173.136 21.8553 172.299 22.3705C171.475 22.8856 170.709 23.1818 170 23.2591L176.259 34H170.812L165.151 23.6261H162.698V34H157.888V8.5ZM162.698 20.2261H165.982C167.206 20.2261 168.242 19.9235 169.092 19.3182C169.955 18.7129 170.387 17.6955 170.387 16.2659C170.387 14.8364 169.962 13.8318 169.112 13.2523C168.262 12.6598 167.231 12.3636 166.021 12.3636H162.698V20.2261ZM180.187 8.5H190C191.443 8.5 192.737 8.80265 193.883 9.40795C195.029 10.0004 195.937 10.8697 196.607 12.0159C197.29 13.1492 197.631 14.5208 197.631 16.1307C197.631 17.7277 197.335 19.0413 196.742 20.0716C196.15 21.089 195.435 21.8553 194.598 22.3705C193.774 22.8856 193.008 23.1818 192.299 23.2591L198.558 34H193.111L187.45 23.6261H184.997V34H180.187V8.5ZM184.997 20.2261H188.281C189.504 20.2261 190.541 19.9235 191.391 19.3182C192.254 18.7129 192.686 17.6955 192.686 16.2659C192.686 14.8364 192.261 13.8318 191.411 13.2523C190.561 12.6598 189.53 12.3636 188.32 12.3636H184.997V20.2261ZM202.563 8.5H218.384V12.7693H207.354V19.1443H218.23V23.2784H207.354V29.7307H218.384V34H202.563V8.5ZM223.011 8.5H232.825C234.267 8.5 235.562 8.80265 236.708 9.40795C237.854 10.0004 238.762 10.8697 239.432 12.0159C240.114 13.1492 240.456 14.5208 240.456 16.1307C240.456 17.7277 240.159 19.0413 239.567 20.0716C238.974 21.089 238.26 21.8553 237.423 22.3705C236.598 22.8856 235.832 23.1818 235.124 23.2591L241.383 34H235.935L230.275 23.6261H227.821V34H223.011V8.5ZM227.821 20.2261H231.106C232.329 20.2261 233.366 19.9235 234.216 19.3182C235.079 18.7129 235.51 17.6955 235.51 16.2659C235.51 14.8364 235.085 13.8318 234.235 13.2523C233.385 12.6598 232.355 12.3636 231.144 12.3636H227.821V20.2261ZM6.32841 39.2545C7.10568 39.2545 7.77386 39.3432 8.33295 39.5205C8.89886 39.6977 9.34205 39.8852 9.6625 40.083C9.98977 40.2807 10.1841 40.4102 10.2455 40.4716L9.34546 41.9136C9.24318 41.825 9.0625 41.6989 8.80341 41.5352C8.54432 41.3648 8.22046 41.2148 7.83182 41.0852C7.44318 40.9489 7 40.8807 6.50227 40.8807C5.73182 40.8807 5.12159 41.0375 4.67159 41.3511C4.22841 41.658 4.00682 42.0943 4.00682 42.6602C4.00682 43.042 4.12273 43.3795 4.35455 43.6727C4.59318 43.9591 4.92727 44.2216 5.35682 44.4602C5.78636 44.6989 6.2875 44.9443 6.86023 45.1966C7.33068 45.3943 7.79091 45.6193 8.24091 45.8716C8.69773 46.1239 9.11023 46.4205 9.47841 46.7614C9.85341 47.1023 10.15 47.4977 10.3682 47.9477C10.5932 48.3977 10.7057 48.9159 10.7057 49.5023C10.7057 50.0818 10.5864 50.6034 10.3477 51.067C10.1159 51.5307 9.78523 51.9261 9.35568 52.2534C8.93296 52.5739 8.43864 52.8193 7.87273 52.9898C7.30682 53.1602 6.69659 53.2455 6.04205 53.2455C5.21705 53.2455 4.47045 53.1432 3.80227 52.9386C3.14091 52.7341 2.60568 52.5193 2.19659 52.2943C1.79432 52.0693 1.5625 51.9295 1.50114 51.875L2.45227 50.3716C2.53409 50.4398 2.68409 50.542 2.90227 50.6784C3.12045 50.808 3.38977 50.9443 3.71023 51.0875C4.03068 51.2307 4.39205 51.3534 4.79432 51.4557C5.19659 51.5511 5.62614 51.5989 6.08295 51.5989C6.99659 51.5989 7.68864 51.3943 8.15909 50.9852C8.62955 50.5761 8.86477 50.0511 8.86477 49.4102C8.86477 48.9193 8.71477 48.4966 8.41477 48.142C8.11477 47.7875 7.71591 47.4705 7.21818 47.1909C6.72046 46.9114 6.17159 46.642 5.57159 46.383C4.95795 46.1034 4.39545 45.7966 3.88409 45.4625C3.37273 45.1284 2.96023 44.7295 2.64659 44.2659C2.33977 43.7955 2.18636 43.2295 2.18636 42.5682C2.18636 41.9136 2.37045 41.3375 2.73864 40.8398C3.11364 40.342 3.61477 39.9534 4.24205 39.6739C4.87614 39.3943 5.57159 39.2545 6.32841 39.2545ZM35.2781 39.5H37.027V47.8864C37.027 48.9977 36.8054 49.9557 36.3622 50.7602C35.9191 51.558 35.3088 52.1716 34.5316 52.6011C33.7611 53.0307 32.8781 53.2455 31.8827 53.2455C30.8872 53.2455 29.9975 53.0307 29.2134 52.6011C28.4361 52.1716 27.8259 51.558 27.3827 50.7602C26.9395 49.9557 26.7179 48.9977 26.7179 47.8864V39.5H28.4566V47.7943C28.4566 48.5784 28.6066 49.2568 28.9066 49.8295C29.2066 50.4023 29.6156 50.8455 30.1338 51.1591C30.652 51.4659 31.235 51.6193 31.8827 51.6193C32.5304 51.6193 33.11 51.4659 33.6213 51.1591C34.1327 50.8455 34.535 50.4023 34.8281 49.8295C35.1281 49.2568 35.2781 48.5784 35.2781 47.7943V39.5ZM55.1005 41.1568L55.213 41.1773V53H53.4642V39.5H55.9289L62.9346 51.3125L62.8221 51.333V39.5H64.571V53H62.0857L55.1005 41.1568ZM87.086 45.667H93.8974V46.4034C93.8974 47.3443 93.7337 48.2307 93.4064 49.0625C93.0792 49.8875 92.6155 50.6136 92.0155 51.2409C91.4224 51.8682 90.7235 52.3591 89.9189 52.7136C89.1144 53.0682 88.2314 53.2455 87.2701 53.2455C86.2883 53.2455 85.3883 53.0648 84.5701 52.7034C83.7519 52.3352 83.0428 51.8307 82.4428 51.1898C81.8428 50.542 81.3792 49.7955 81.0519 48.95C80.7246 48.1045 80.561 47.2011 80.561 46.2398C80.561 45.2852 80.7246 44.3852 81.0519 43.5398C81.3792 42.6943 81.8428 41.9511 82.4428 41.3102C83.0428 40.6693 83.7519 40.1682 84.5701 39.8068C85.3883 39.4386 86.2883 39.2545 87.2701 39.2545C87.9383 39.2545 88.5485 39.3295 89.1008 39.4795C89.6599 39.6227 90.161 39.8273 90.6042 40.0932C91.0542 40.3523 91.453 40.6489 91.8008 40.983C92.1485 41.3102 92.4485 41.658 92.7008 42.0261L91.1155 42.875C90.7064 42.3091 90.1814 41.842 89.5405 41.4739C88.8996 41.1057 88.1428 40.9216 87.2701 40.9216C86.561 40.9216 85.9064 41.0614 85.3064 41.3409C84.7064 41.6205 84.1849 42.0057 83.7417 42.4966C83.3053 42.9875 82.9678 43.5534 82.7292 44.1943C82.4905 44.8352 82.3712 45.517 82.3712 46.2398C82.3712 46.9625 82.4905 47.6477 82.7292 48.2955C82.9678 48.9364 83.3053 49.5057 83.7417 50.0034C84.1849 50.4943 84.7064 50.8795 85.3064 51.1591C85.9064 51.4386 86.561 51.5784 87.2701 51.5784C87.9451 51.5784 88.5621 51.4625 89.1212 51.2307C89.6803 50.9989 90.1678 50.6784 90.5837 50.2693C90.9996 49.8602 91.3269 49.383 91.5655 48.8375C91.8042 48.292 91.9371 47.7057 91.9644 47.0784H87.086V45.667ZM109.837 39.5H111.585V51.4148H116.893V53H109.837V39.5ZM137.205 39.5H139.025L144.016 53H142.145L140.979 49.7477H135.251L134.065 53H132.194L137.205 39.5ZM135.814 48.1727H140.426L138.136 41.6477H138.105L135.814 48.1727ZM163.571 39.2545C164.348 39.2545 165.017 39.3432 165.576 39.5205C166.142 39.6977 166.585 39.8852 166.905 40.083C167.232 40.2807 167.427 40.4102 167.488 40.4716L166.588 41.9136C166.486 41.825 166.305 41.6989 166.046 41.5352C165.787 41.3648 165.463 41.2148 165.075 41.0852C164.686 40.9489 164.243 40.8807 163.745 40.8807C162.975 40.8807 162.364 41.0375 161.914 41.3511C161.471 41.658 161.25 42.0943 161.25 42.6602C161.25 43.042 161.365 43.3795 161.597 43.6727C161.836 43.9591 162.17 44.2216 162.6 44.4602C163.029 44.6989 163.53 44.9443 164.103 45.1966C164.573 45.3943 165.034 45.6193 165.484 45.8716C165.94 46.1239 166.353 46.4205 166.721 46.7614C167.096 47.1023 167.393 47.4977 167.611 47.9477C167.836 48.3977 167.948 48.9159 167.948 49.5023C167.948 50.0818 167.829 50.6034 167.59 51.067C167.359 51.5307 167.028 51.9261 166.598 52.2534C166.176 52.5739 165.681 52.8193 165.115 52.9898C164.55 53.1602 163.939 53.2455 163.285 53.2455C162.46 53.2455 161.713 53.1432 161.045 52.9386C160.384 52.7341 159.848 52.5193 159.439 52.2943C159.037 52.0693 158.805 51.9295 158.744 51.875L159.695 50.3716C159.777 50.4398 159.927 50.542 160.145 50.6784C160.363 50.808 160.632 50.9443 160.953 51.0875C161.273 51.2307 161.635 51.3534 162.037 51.4557C162.439 51.5511 162.869 51.5989 163.326 51.5989C164.239 51.5989 164.931 51.3943 165.402 50.9852C165.872 50.5761 166.107 50.0511 166.107 49.4102C166.107 48.9193 165.957 48.4966 165.657 48.142C165.357 47.7875 164.959 47.4705 164.461 47.1909C163.963 46.9114 163.414 46.642 162.814 46.383C162.201 46.1034 161.638 45.7966 161.127 45.4625C160.615 45.1284 160.203 44.7295 159.889 44.2659C159.582 43.7955 159.429 43.2295 159.429 42.5682C159.429 41.9136 159.613 41.3375 159.981 40.8398C160.356 40.342 160.857 39.9534 161.485 39.6739C162.119 39.3943 162.814 39.2545 163.571 39.2545ZM188.287 39.2545C189.064 39.2545 189.732 39.3432 190.291 39.5205C190.857 39.6977 191.3 39.8852 191.621 40.083C191.948 40.2807 192.142 40.4102 192.204 40.4716L191.304 41.9136C191.202 41.825 191.021 41.6989 190.762 41.5352C190.503 41.3648 190.179 41.2148 189.79 41.0852C189.402 40.9489 188.958 40.8807 188.461 40.8807C187.69 40.8807 187.08 41.0375 186.63 41.3511C186.187 41.658 185.965 42.0943 185.965 42.6602C185.965 43.042 186.081 43.3795 186.313 43.6727C186.552 43.9591 186.886 44.2216 187.315 44.4602C187.745 44.6989 188.246 44.9443 188.819 45.1966C189.289 45.3943 189.749 45.6193 190.199 45.8716C190.656 46.1239 191.069 46.4205 191.437 46.7614C191.812 47.1023 192.108 47.4977 192.327 47.9477C192.552 48.3977 192.664 48.9159 192.664 49.5023C192.664 50.0818 192.545 50.6034 192.306 51.067C192.074 51.5307 191.744 51.9261 191.314 52.2534C190.891 52.5739 190.397 52.8193 189.831 52.9898C189.265 53.1602 188.655 53.2455 188 53.2455C187.175 53.2455 186.429 53.1432 185.761 52.9386C185.099 52.7341 184.564 52.5193 184.155 52.2943C183.753 52.0693 183.521 51.9295 183.459 51.875L184.411 50.3716C184.492 50.4398 184.642 50.542 184.861 50.6784C185.079 50.808 185.348 50.9443 185.669 51.0875C185.989 51.2307 186.35 51.3534 186.753 51.4557C187.155 51.5511 187.584 51.5989 188.041 51.5989C188.955 51.5989 189.647 51.3943 190.117 50.9852C190.588 50.5761 190.823 50.0511 190.823 49.4102C190.823 48.9193 190.673 48.4966 190.373 48.142C190.073 47.7875 189.674 47.4705 189.177 47.1909C188.679 46.9114 188.13 46.642 187.53 46.383C186.916 46.1034 186.354 45.7966 185.842 45.4625C185.331 45.1284 184.919 44.7295 184.605 44.2659C184.298 43.7955 184.145 43.2295 184.145 42.5682C184.145 41.9136 184.329 41.3375 184.697 40.8398C185.072 40.342 185.573 39.9534 186.2 39.6739C186.834 39.3943 187.53 39.2545 188.287 39.2545ZM208.809 39.5H216.787V41.0852H210.538V45.4625H216.664V47.0068H210.538V51.4148H216.787V53H208.809V39.5ZM237.658 39.2545C238.435 39.2545 239.104 39.3432 239.663 39.5205C240.229 39.6977 240.672 39.8852 240.992 40.083C241.32 40.2807 241.514 40.4102 241.575 40.4716L240.675 41.9136C240.573 41.825 240.392 41.6989 240.133 41.5352C239.874 41.3648 239.55 41.2148 239.162 41.0852C238.773 40.9489 238.33 40.8807 237.832 40.8807C237.062 40.8807 236.451 41.0375 236.001 41.3511C235.558 41.658 235.337 42.0943 235.337 42.6602C235.337 43.042 235.452 43.3795 235.684 43.6727C235.923 43.9591 236.257 44.2216 236.687 44.4602C237.116 44.6989 237.617 44.9443 238.19 45.1966C238.66 45.3943 239.121 45.6193 239.571 45.8716C240.027 46.1239 240.44 46.4205 240.808 46.7614C241.183 47.1023 241.48 47.4977 241.698 47.9477C241.923 48.3977 242.035 48.9159 242.035 49.5023C242.035 50.0818 241.916 50.6034 241.677 51.067C241.446 51.5307 241.115 51.9261 240.685 52.2534C240.263 52.5739 239.768 52.8193 239.202 52.9898C238.637 53.1602 238.026 53.2455 237.372 53.2455C236.547 53.2455 235.8 53.1432 235.132 52.9386C234.471 52.7341 233.935 52.5193 233.526 52.2943C233.124 52.0693 232.892 51.9295 232.831 51.875L233.782 50.3716C233.864 50.4398 234.014 50.542 234.232 50.6784C234.45 50.808 234.72 50.9443 235.04 51.0875C235.36 51.2307 235.722 51.3534 236.124 51.4557C236.526 51.5511 236.956 51.5989 237.413 51.5989C238.326 51.5989 239.018 51.3943 239.489 50.9852C239.959 50.5761 240.195 50.0511 240.195 49.4102C240.195 48.9193 240.045 48.4966 239.745 48.142C239.445 47.7875 239.046 47.4705 238.548 47.1909C238.05 46.9114 237.501 46.642 236.901 46.383C236.288 46.1034 235.725 45.7966 235.214 45.4625C234.702 45.1284 234.29 44.7295 233.976 44.2659C233.67 43.7955 233.516 43.2295 233.516 42.5682C233.516 41.9136 233.7 41.3375 234.068 40.8398C234.443 40.342 234.945 39.9534 235.572 39.6739C236.206 39.3943 236.901 39.2545 237.658 39.2545Z" fill="white"/>
</svg>
