<?xml version="1.0" encoding="UTF-8"?>
<svg id="Capa_1" xmlns="http://www.w3.org/2000/svg" version="1.1" viewBox="0 0 200 200">
  <!-- Generator: Adobe Illustrator 29.5.1, SVG Export Plug-In . SVG Version: 2.1.0 Build 141)  -->
  <defs>
    <style>
      .st0 {
        fill: #fff;
      }

      .st1 {
        fill: #ffec06;
      }
    </style>
  </defs>
  <path class="st1" d="M142.93,1.88H57.07C26.41,1.88,1.88,26.41,1.88,57.07v85.86c0,30.66,24.53,55.19,55.19,55.19h85.86c30.66,0,55.19-24.53,55.19-55.19V57.07c0-30.66-24.53-55.19-55.19-55.19Z"/>
  <g>
    <path class="st0" d="M100.61,176.66c-4.29,0-8.59-.61-12.88-1.84-4.91-1.84-9.81-4.29-13.49-6.75-4.29-2.45-9.2-3.68-14.72-3.68h-.61c-1.23,0-2.45,0-4.29-.61h-1.23c-4.29-.61-9.81-2.45-11.04-9.81-.61,0-1.23-.61-1.84-.61l-3.07-1.23c-2.45-1.23-4.91-1.84-7.36-3.07-6.13-3.07-6.75-7.97-6.75-9.81s.61-6.75,6.75-10.43c7.36-3.68,12.27-7.97,15.94-12.27,3.07-3.07,4.91-6.75,6.13-10.43-1.23-.61-1.84-1.23-2.45-1.84-1.84-1.23-3.07-2.45-4.91-3.07-1.84-1.23-3.07-2.45-4.91-4.29-4.29-4.29-4.91-9.81-2.45-15.33,2.45-4.91,6.75-7.97,12.27-7.97h1.84c1.23,0,2.45.61,3.68.61,0-4.29,0-8.59.61-12.88,1.23-15.33,9.81-26.98,23.92-33.73,7.97-3.68,12.27-4.29,20.24-4.29,14.11,0,25.76,4.91,34.96,14.72,6.13,6.13,9.2,14.11,10.43,22.69.61,4.29.61,8.59.61,13.49,1.23,0,3.07-.61,4.29-.61h0c6.13,0,11.04,3.68,12.88,8.59,1.84,5.52.61,11.65-3.68,15.33-2.45,1.84-4.29,3.68-6.75,5.52l-1.84,1.23c-.61.61-1.84,1.23-2.45,1.84,0,0-.61,0-.61.61,2.45,6.13,6.13,11.65,12.27,15.94,1.84,1.23,4.29,3.07,6.75,4.29,1.23.61,3.07,1.84,4.29,2.45,6.13,3.68,6.13,8.59,5.52,11.04-.61,3.68-3.68,7.36-7.36,9.2-3.68,1.23-7.36,3.07-11.04,4.29-1.23,5.52-5.52,9.81-11.65,9.81h-.61c-1.23,0-2.45.61-4.29.61h-1.23c-6.13,0-11.65,1.84-16.56,5.52-7.36,4.29-15.33,6.75-23.3,6.75Z"/>
    <path d="M100,26.41h0c13.49,0,23.92,4.91,32.5,13.49,5.52,6.13,8.59,12.88,9.81,21.46.61,5.52.61,11.04.61,17.17q.61,0,1.23-.61c2.45-.61,4.29-1.23,6.75-1.23h.61c4.29,0,7.97,2.45,9.2,6.75,1.84,4.29.61,9.2-3.07,11.65-2.45,1.84-4.29,3.68-6.75,4.91l-1.84,1.84c-.61.61-1.23,1.23-2.45,1.84-.61.61-1.23.61-1.84,1.23l-.61.61v.61c2.45,7.36,6.75,13.49,13.49,18.4,1.84,1.84,4.29,3.07,6.75,4.29,1.23.61,3.07,1.84,4.29,2.45,4.29,2.45,4.91,5.52,4.29,7.97-.61,3.07-2.45,5.52-5.52,6.75-4.29,1.84-8.59,3.68-12.88,4.91-.61,5.52-4.29,9.2-9.2,9.2h-1.23c-1.23,0-2.45.61-3.68.61h-.61c-6.75,0-12.88,1.84-18.4,5.52-6.75,4.29-14.11,6.75-21.46,6.75-3.68,0-7.97-.61-12.27-1.84-4.91-1.23-9.2-4.29-12.88-6.13-4.91-3.07-9.81-4.29-15.94-4.29h-5.52c-4.91-.61-7.97-2.45-9.2-9.2q-.61,0-1.23-.61c-.61,0-1.84-.61-2.45-.61l-1.84-1.23c-2.45-.61-4.91-1.84-6.75-3.07-4.91-1.84-5.52-5.52-5.52-7.36s.61-4.91,4.91-7.36c7.36-4.29,12.88-7.97,17.17-12.88,3.68-4.29,6.13-8.59,7.36-12.88h0c-1.84-1.23-3.07-2.45-4.91-3.07-1.84-1.23-3.07-1.84-4.29-3.07-1.23-1.23-3.07-2.45-4.29-4.29-3.07-3.07-3.68-7.97-1.84-11.65s5.52-6.13,9.2-6.13h1.23c2.45.61,4.91,1.23,6.75,1.84h0v-16.56c1.23-14.11,9.2-25.14,22.08-31.28,8.59-4.29,12.27-4.91,20.24-4.91h0M100,20.28h-.61c-7.97,0-12.88.61-21.46,4.91-15.33,7.36-24.53,20.24-25.76,36.18,0,3.07-.61,6.13-.61,9.2h-2.45c-6.13,0-11.65,3.68-14.72,9.81-3.07,6.13-1.84,13.49,3.07,19.01,1.84,1.84,3.68,3.68,5.52,4.91,1.84.61,3.07,1.84,4.91,3.07l.61.61c-1.23,2.45-3.07,4.91-4.91,7.36-3.68,4.29-8.59,7.97-15.33,11.65-7.36,3.07-7.97,9.2-7.97,12.27,0,5.52,3.07,9.81,8.59,12.27,2.45,1.23,5.52,2.45,7.36,3.07l3.07,1.23h.61c3.07,8.59,10.43,10.43,13.49,10.43h1.23c1.23.61,2.45,1.23,4.29,1.23h.61c4.91,0,9.2,1.23,12.88,3.68,3.68,2.45,8.59,5.52,14.11,6.75,4.91,1.23,9.2,1.84,14.11,1.84,8.59,0,17.17-2.45,25.14-7.97,4.91-3.07,9.81-4.91,15.33-4.91h.61c1.84,0,3.07,0,4.29-.61h.61c6.75-.61,11.65-4.91,14.11-10.43,3.68-1.23,6.75-2.45,9.81-3.68,4.91-1.84,8.59-6.75,9.2-11.65.61-2.45.61-9.2-7.36-14.11-1.23-1.23-3.07-1.84-4.29-2.45-2.45-1.23-4.29-2.45-6.13-4.29-4.91-3.68-7.97-7.97-10.43-12.27.61,0,.61-.61,1.23-.61l1.84-1.23c2.45-1.84,4.91-3.68,6.75-5.52,5.52-4.29,7.36-11.65,4.91-18.4-2.45-6.75-8.59-11.04-15.33-11.04h-1.84c0-3.68-.61-6.75-.61-10.43-1.23-9.2-4.91-17.78-11.04-24.53-9.81-9.81-22.08-15.33-37.41-15.33h0Z"/>
  </g>
</svg>