<?xml version="1.0" encoding="UTF-8"?>
<svg id="Capa_1" xmlns="http://www.w3.org/2000/svg" version="1.1" viewBox="0 0 200 200">
  <!-- Generator: Adobe Illustrator 29.5.1, SVG Export Plug-In . SVG Version: 2.1.0 Build 141)  -->
  <defs>
    <style>
      .st0 {
        fill: #fff;
      }
    </style>
  </defs>
  <g id="Icons">
    <path class="st0" d="M148.77,2.46H51.23C24.39,2.7,2.7,24.39,2.46,51.23v97.54c.24,26.83,21.94,48.53,48.77,48.77h97.54c26.83-.24,48.53-21.94,48.77-48.77V51.23c-.24-26.83-21.94-48.53-48.77-48.77ZM158.52,131.92c-.99,1.24-2.19,2.29-3.55,3.1l-11.53,2.66-1.33.89c-.21,1.02-.36,2.06-.44,3.1v.89c.07.62-.09,1.25-.44,1.77-.44.89-.89,1.33-1.77,1.33h-14.19c-3.41.73-6.6,2.24-9.31,4.43-4.48,3.74-10.13,5.78-15.96,5.76h-1.33c-5.89-.11-11.55-2.31-15.96-6.21-2.77-2.09-5.94-3.6-9.31-4.43h-13.74c-.95.08-1.84-.46-2.22-1.33-.49-.81-.8-1.72-.89-2.66h0c-.25-.97-.7-1.88-1.33-2.66,0-.49-.4-.89-.89-.89h0c-3.97-.48-7.85-1.52-11.53-3.1-1.41-.53-2.64-1.46-3.55-2.66h0l1.33-1.33c3.95-.45,7.75-1.82,11.08-3.99,2.93-1.88,5.48-4.29,7.54-7.09,2.85-3.03,4.97-6.67,6.21-10.64h0c1.09-1.55,1.42-3.5.89-5.32-1.33-3.1-4.88-3.99-7.54-4.88h-.44l-1.33-.89c-1.51-.36-2.89-1.12-3.99-2.22-.87-.6-1.37-1.6-1.33-2.66.2-.98.86-1.81,1.77-2.22,1.33-.89,3.55-1.33,4.43-.44s6.65,2.22,8.87.89.89-.89.89-1.33-.44-2.22-.44-3.1h0c-.44-7.98-.89-18.18,1.33-23.94,1.89-3.82,4.44-7.27,7.54-10.2,2.39-2.37,5.26-4.18,8.42-5.32,4.14-2.02,8.69-3.08,13.3-3.1h2.22c4.61.06,9.14,1.12,13.3,3.1,3.11,1.25,5.96,3.05,8.42,5.32,3.1,2.82,5.52,6.31,7.09,10.2,2.66,5.76,1.77,15.96,1.33,23.94h0v1.77h0c0,.7.33,1.35.89,1.77h2.66l5.32-1.77h3.99c1.63.19,2.91,1.48,3.1,3.1,0,.44,0,.89-.89,2.22l-4.43,2.22h-1.77c-3.01.38-5.74,1.99-7.54,4.43-.54,1.96-.22,4.06.89,5.76h0c1.33,3.1,9.31,18.18,25.27,20.84.56.42.89,1.08.89,1.77v3.12Z"/>
  </g>
</svg>