<?xml version="1.0" encoding="UTF-8"?>
<svg id="Capa_1" xmlns="http://www.w3.org/2000/svg" version="1.1" viewBox="0 0 200 200">
  <!-- Generator: Adobe Illustrator 29.5.1, SVG Export Plug-In . SVG Version: 2.1.0 Build 141)  -->
  <defs>
    <style>
      .st0, .st1 {
        fill: #010101;
      }

      .st1, .st2, .st3, .st4, .st5, .st6 {
        fill-rule: evenodd;
      }

      .st2 {
        fill: #66c8cf;
      }

      .st3 {
        fill: #69c9d0;
      }

      .st4 {
        fill: #fff;
      }

      .st5 {
        fill: #ee1d52;
      }

      .st6 {
        fill: #ee1d51;
      }
    </style>
  </defs>
  <path class="st1" d="M21.87,2.34h156.25c10.79,0,19.53,8.74,19.53,19.53v156.25c0,10.79-8.74,19.53-19.53,19.53H21.87c-10.79,0-19.53-8.74-19.53-19.53V21.87C2.34,11.09,11.09,2.34,21.87,2.34Z"/>
  <path class="st6" d="M124.98,182.03c5.94,0,10.76-4.78,10.76-10.67s-4.82-10.67-10.76-10.67h-1.62c5.94,0,10.76,4.78,10.76,10.67s-4.82,10.67-10.76,10.67h1.62Z"/>
  <path class="st2" d="M123.22,160.69h-1.62c-5.94,0-10.76,4.78-10.76,10.67s4.82,10.67,10.76,10.67h1.62c-5.94,0-10.76-4.78-10.76-10.67s4.82-10.67,10.76-10.67Z"/>
  <ellipse class="st0" cx="123.29" cy="171.36" rx="5.23" ry="5.19"/>
  <path class="st4" d="M41.4,155.86v5.41h6.34v20.62h6.34v-20.47h5.16l1.77-5.56h-19.61ZM93.29,155.86v5.41h6.34v20.62h6.34v-20.47h5.16l1.77-5.56h-19.61ZM62.19,158.93c0-1.7,1.38-3.07,3.09-3.07s3.1,1.38,3.1,3.07-1.38,3.07-3.1,3.07c-1.71,0-3.09-1.38-3.09-3.07ZM62.19,164.2h6.19v17.69h-6.19v-17.69ZM71.03,155.86v26.03h6.19v-6.73l1.92-1.76,6.04,8.63h6.63l-8.7-12.57,7.81-7.6h-7.52l-6.19,6.14v-12.13h-6.19ZM137.81,155.86v26.03h6.19v-6.73l1.92-1.76,6.04,8.63h6.63l-8.7-12.57,7.81-7.6h-7.52l-6.19,6.14v-12.13h-6.19Z"/>
  <path class="st5" d="M128.26,65.77c8.55,6.11,19.03,9.7,30.34,9.7v-21.76c-2.14,0-4.28-.22-6.37-.67v17.13c-11.31,0-21.79-3.59-30.34-9.7v44.4c0,22.21-18.02,40.22-40.24,40.22-8.29,0-16-2.51-22.4-6.8,7.31,7.47,17.5,12.1,28.77,12.1,22.22,0,40.24-18.01,40.24-40.22v-44.4h0ZM136.12,43.82c-4.37-4.77-7.24-10.94-7.86-17.76v-2.8h-6.04c1.52,8.66,6.7,16.07,13.9,20.55h0ZM73.3,121.25c-2.44-3.2-3.76-7.11-3.75-11.14,0-10.16,8.24-18.4,18.41-18.4,1.89,0,3.78.29,5.58.86v-22.25c-2.11-.29-4.24-.41-6.37-.37v17.31c-1.81-.57-3.69-.86-5.59-.86-10.17,0-18.41,8.24-18.41,18.4,0,7.18,4.12,13.4,10.13,16.43Z"/>
  <path class="st4" d="M121.88,60.47c8.55,6.11,19.03,9.7,30.34,9.7v-17.13c-6.31-1.34-11.9-4.64-16.11-9.23-7.19-4.49-12.38-11.89-13.9-20.55h-15.86v86.91c-.04,10.13-8.26,18.33-18.41,18.33-5.98,0-11.29-2.85-14.65-7.26-6.01-3.03-10.13-9.25-10.13-16.43,0-10.16,8.24-18.4,18.41-18.4,1.95,0,3.83.3,5.59.86v-17.31c-21.83.45-39.39,18.28-39.39,40.21,0,10.95,4.37,20.87,11.47,28.12,6.4,4.3,14.11,6.8,22.4,6.8,22.22,0,40.24-18.01,40.24-40.22v-44.4Z"/>
  <path class="st3" d="M152.22,53.05v-4.63c-5.69,0-11.28-1.59-16.11-4.6,4.28,4.68,9.91,7.91,16.11,9.23ZM122.22,23.26c-.15-.83-.26-1.66-.33-2.5v-2.8h-21.9v86.91c-.04,10.13-8.26,18.33-18.41,18.33-2.98,0-5.79-.71-8.28-1.96,3.36,4.41,8.67,7.26,14.65,7.26,10.14,0,18.37-8.2,18.41-18.33V23.26h15.86ZM87.17,69.96v-4.93c-1.83-.25-3.67-.38-5.52-.37-22.23,0-40.24,18.01-40.24,40.22,0,13.93,7.08,26.2,17.84,33.42-7.1-7.25-11.47-17.17-11.47-28.12,0-21.93,17.56-39.76,39.39-40.21h0Z"/>
  <path class="st4" d="M123.36,182.03c5.94,0,10.76-4.78,10.76-10.67s-4.82-10.67-10.76-10.67h-.15c-5.94,0-10.76,4.78-10.76,10.67s4.82,10.67,10.76,10.67h.15ZM118.06,171.36c0-2.87,2.34-5.19,5.23-5.19s5.23,2.32,5.23,5.19-2.34,5.19-5.23,5.19c-2.89,0-5.23-2.32-5.23-5.19Z"/>
</svg>