<?xml version="1.0" encoding="UTF-8"?>
<svg id="Capa_1" xmlns="http://www.w3.org/2000/svg" version="1.1" viewBox="0 0 200 200">
  <!-- Generator: Adobe Illustrator 29.5.1, SVG Export Plug-In . SVG Version: 2.1.0 Build 141)  -->
  <defs>
    <style>
      .st0 {
        fill: #fff;
      }
    </style>
  </defs>
  <path class="st0" d="M188.75,1.39H11.25C5.81,1.39,1.39,5.81,1.39,11.25v177.49c0,5.45,4.41,9.86,9.86,9.86h177.49c5.45,0,9.86-4.41,9.86-9.86V11.25c0-5.45-4.41-9.86-9.86-9.86ZM156.39,87.43h0c-1.07.11-2.16.16-3.23.17-11.89.02-22.98-5.97-29.49-15.91v54.16c0,22.12-17.92,40.05-40.03,40.05s-40.05-17.92-40.05-40.03c0-22.12,17.92-40.05,40.03-40.05h.02c.84,0,1.65.08,2.48.13v19.72c-11.17-1.35-21.33,6.61-22.68,17.78-1.35,11.17,6.61,21.33,17.78,22.68.81.1,1.62.15,2.43.15,11.41.21,20.88-8.76,21.3-20.16l.2-92.01h18.87c1.78,16.92,15.42,30.14,32.39,31.38v21.94Z"/>
</svg>