<?xml version="1.0" encoding="utf-8"?>
<!-- Generator: Adobe Illustrator 27.1.0, SVG Export Plug-In . SVG Version: 6.00 Build 0)  -->
<svg version="1.1" id="Capa_1" xmlns="http://www.w3.org/2000/svg" xmlns:xlink="http://www.w3.org/1999/xlink" x="0px" y="0px"
	 viewBox="0 0 200 200" style="enable-background:new 0 0 200 200;" xml:space="preserve">
<style type="text/css">
	.st0{fill-rule:evenodd;clip-rule:evenodd;fill:#CE1312;}
	.st1{fill-rule:evenodd;clip-rule:evenodd;fill:#FFFFFF;}
</style>
<g id="Icons">
	<g id="Color-" transform="translate(-200.000000, -368.000000)">
		<path class="st0" d="M398.4,432.6v70.7c0,16.1-2,32.1-2,32.1s-1.9,13.7-7.8,19.7c-7.5,7.9-15.9,7.9-19.7,8.4
			c-27.6,2-68.9,2.1-68.9,2.1s-51.2-0.5-66.9-2c-4.4-0.9-14.2-0.6-21.7-8.5c-5.9-6-7.8-19.7-7.8-19.7s-2-16.1-2-32.1v-70.7
			c0-16.1,2-32.1,2-32.1s1.9-13.7,7.8-19.7c7.5-7.9,15.9-7.9,19.7-8.4c27.5-2,68.8-2,68.8-2h0.1c0,0,41.3,0,68.8,2
			c3.8,0.5,12.2,0.5,19.7,8.4c5.9,6,7.8,19.7,7.8,19.7S398.3,416.5,398.4,432.6z"/>
	</g>
</g>
<polygon class="st1" points="69.1,61.3 142.9,100 69.1,138.7 "/>
</svg>
